<svg xmlns="http://www.w3.org/2000/svg" viewBox="0 0 64 64" fill="none">
  <rect width="64" height="64" rx="12" fill="#10B981"/>
  <path d="M20 14C20 12.8954 20.8954 12 22 12C23.1046 12 24 12.8954 24 14V16C24 17.1046 23.1046 18 22 18C20.8954 18 20 17.1046 20 16V14Z" fill="white"/>
  <path d="M40 14C40 12.8954 40.8954 12 42 12C43.1046 12 44 12.8954 44 14V16C44 17.1046 43.1046 18 42 18C40.8954 18 40 17.1046 40 16V14Z" fill="white"/>
  <path d="M22 18C20.8954 18 20 18.8954 20 20V26C20 32.6274 25.3726 38 32 38C35.7 38 39 36.1 41 33.2V44C41 46.2091 39.2091 48 37 48C34.7909 48 33 46.2091 33 44V43C33 40.7909 31.2091 39 29 39C26.7909 39 25 40.7909 25 43C25 45.2091 26.7909 47 29 47C29.3506 47 29.6872 46.9398 30 46.8293V44C30 42.8954 29.1046 42 28 42C26.8954 42 26 42.8954 26 44C26 45.1046 26.8954 46 28 46H29C30.1046 46 31 45.1046 31 44V43C31 41.8954 30.1046 41 29 41C27.8954 41 27 41.8954 27 43C27 44.1046 27.8954 45 29 45V47C26.7909 47 25 45.2091 25 43C25 40.7909 26.7909 39 29 39C31.2091 39 33 40.7909 33 43V44C33 46.2091 34.7909 48 37 48C39.2091 48 41 46.2091 41 44V33.2C43 30.3 44 26.8 44 26V20C44 18.8954 43.1046 18 42 18H22Z" fill="white"/>
  <circle cx="47" cy="42" r="4" fill="white"/>
</svg>
