<svg xmlns="http://www.w3.org/2000/svg" viewBox="0 0 64 64" fill="none">
  <rect width="64" height="64" rx="12" fill="#0EA5E9"/>
  <path d="M32 16C32 14.8954 32.8954 14 34 14H30C28.8954 14 28 14.8954 28 16V26H18C16.8954 26 16 26.8954 16 28V36C16 37.1046 16.8954 38 18 38H28V48C28 49.1046 28.8954 50 30 50H34C35.1046 50 36 49.1046 36 48V38H46C47.1046 38 48 37.1046 48 36V28C48 26.8954 47.1046 26 46 26H36V16C36 14.8954 35.1046 14 34 14Z" fill="white"/>
  <path d="M28 16C28 14.8954 28.8954 14 30 14H34C35.1046 14 36 14.8954 36 16V26H46C47.1046 26 48 26.8954 48 28V36C48 37.1046 47.1046 38 46 38H36V48C36 49.1046 35.1046 50 34 50H30C28.8954 50 28 49.1046 28 48V38H18C16.8954 38 16 37.1046 16 36V28C16 26.8954 16.8954 26 18 26H28V16Z" fill="white"/>
</svg>
